<svg width="28" height="28" viewBox="0 0 28 28" fill="none" xmlns="http://www.w3.org/2000/svg">
<path d="M18.3661 17.1339C18.8543 17.622 19.6457 17.622 20.1339 17.1339C20.622 16.6457 20.622 15.8543 20.1339 15.3661L18.3661 17.1339ZM14 11L14.8839 10.1161C14.3957 9.62795 13.6043 9.62795 13.1161 10.1161L14 11ZM7.86612 15.3661C7.37796 15.8543 7.37796 16.6457 7.86612 17.1339C8.35427 17.622 9.14573 17.622 9.63388 17.1339L7.86612 15.3661ZM24.75 14C24.75 19.9371 19.9371 24.75 14 24.75V27.25C21.3178 27.25 27.25 21.3178 27.25 14H24.75ZM14 24.75C8.06294 24.75 3.25 19.9371 3.25 14H0.75C0.75 21.3178 6.68223 27.25 14 27.25V24.75ZM3.25 14C3.25 8.06294 8.06294 3.25 14 3.25V0.75C6.68223 0.75 0.75 6.68223 0.75 14H3.25ZM14 3.25C19.9371 3.25 24.75 8.06294 24.75 14H27.25C27.25 6.68223 21.3178 0.75 14 0.75V3.25ZM20.1339 15.3661L14.8839 10.1161L13.1161 11.8839L18.3661 17.1339L20.1339 15.3661ZM13.1161 10.1161L7.86612 15.3661L9.63388 17.1339L14.8839 11.8839L13.1161 10.1161Z" fill="black"/>
</svg>
